<?xml version="1.0" encoding="UTF-8" standalone="no"?>
<!DOCTYPE svg PUBLIC "-//W3C//DTD SVG 1.1//EN" "http://www.w3.org/Graphics/SVG/1.1/DTD/svg11.dtd">
<svg width="100%" height="100%" viewBox="0 0 512 512" version="1.1" xmlns="http://www.w3.org/2000/svg" xmlns:xlink="http://www.w3.org/1999/xlink" xml:space="preserve" xmlns:serif="http://www.serif.com/" style="fill-rule:evenodd;clip-rule:evenodd;stroke-linecap:round;stroke-linejoin:round;stroke-miterlimit:1.5;">
    <g transform="matrix(1.3292,0,0,1.3292,-137.238,-109.031)">
        <path d="M295.845,106.102L441.789,190.363L441.789,358.885L295.845,443.146L149.9,358.885L149.9,190.363L295.845,106.102Z"/>
        <clipPath id="_clip1">
            <path d="M295.845,106.102L441.789,190.363L441.789,358.885L295.845,443.146L149.9,358.885L149.9,190.363L295.845,106.102Z"/>
        </clipPath>
        <g clip-path="url(#_clip1)">
            <g transform="matrix(0.956664,0,0,0.956664,12.7729,-149.337)">
                <path d="M295.845,106.102L441.789,190.363L441.789,358.885L295.845,443.146L149.9,358.885L149.9,190.363L295.845,106.102Z" style="fill:rgb(22,22,22);"/>
            </g>
            <g transform="matrix(0.956664,0,0,0.956664,-126.815,92.4683)">
                <path d="M295.845,106.102L441.789,190.363L441.789,358.885L295.845,443.146L149.9,358.885L149.9,190.363L295.845,106.102Z" style="fill:rgb(7,7,7);"/>
            </g>
            <g transform="matrix(0.589821,0,0,0.589821,121.349,112.645)">
                <path d="M295.845,106.102L441.789,190.363L441.789,358.885L295.845,443.146L149.9,358.885L149.9,190.363L295.845,106.102Z" style="fill:none;stroke:white;stroke-width:21.26px;"/>
            </g>
        </g>
        <path d="M295.845,106.102L441.789,190.363L441.789,358.885L295.845,443.146L149.9,358.885L149.9,190.363L295.845,106.102Z" style="fill:none;stroke:white;stroke-width:12.54px;"/>
    </g>
    <g transform="matrix(1,0,0,1,0.954148,0.705467)">
        <rect x="236.704" y="98.828" width="36.684" height="55.732" style="fill:rgb(22,22,22);"/>
    </g>
    <g transform="matrix(0.5,0.866025,-0.866025,0.5,117.452,42.0955)">
        <rect x="236.704" y="98.828" width="36.684" height="55.732" style="fill:rgb(7,7,7);"/>
    </g>
    <g transform="matrix(0.5,-0.866025,0.866025,0.5,138.209,483.848)">
        <rect x="236.704" y="98.828" width="36.684" height="55.732"/>
    </g>
</svg>
