<?xml version="1.0" encoding="UTF-8" standalone="no"?>
<!DOCTYPE svg PUBLIC "-//W3C//DTD SVG 1.1//EN" "http://www.w3.org/Graphics/SVG/1.1/DTD/svg11.dtd">
<svg width="100%" height="100%" viewBox="0 0 144 81" version="1.1" xmlns="http://www.w3.org/2000/svg" xmlns:xlink="http://www.w3.org/1999/xlink" xml:space="preserve" xmlns:serif="http://www.serif.com/" style="fill-rule:evenodd;clip-rule:evenodd;stroke-linecap:round;stroke-linejoin:round;stroke-miterlimit:1.5;">
    <g id="Space-Back" serif:id="Space Back" transform="matrix(0.219301,0,0,0.122323,17.6025,4.95102)">
        <rect x="-80" y="-38" width="658" height="662" style="stroke:black;stroke-width:9.39px;"/>
    </g>
    <g id="Layer1" transform="matrix(-0.103041,-0.00012345,0.000160904,-0.133671,157.078,56.5015)">
        <g transform="matrix(1.44079,0,0,1.43333,-39.2303,-158.233)">
            <path d="M241,364C241,355.721 232.326,349 221.642,349L108.358,349C97.674,349 89,355.721 89,364C89,372.279 97.674,379 108.358,379L221.642,379C232.326,379 241,372.279 241,364Z" style="fill:rgb(177,128,0);fill-opacity:0.1;"/>
        </g>
        <g transform="matrix(0.625,0,0,0.833333,75.375,94.1667)">
            <path d="M241,364C241,355.721 229.374,349 215.055,349L114.945,349C100.626,349 89,355.721 89,364C89,372.279 100.626,379 114.945,379L215.055,379C229.374,379 241,372.279 241,364Z" style="fill:rgb(177,128,0);fill-opacity:0.1;"/>
        </g>
        <g transform="matrix(2.19737,0,0,0.533333,-84.5658,223.867)">
            <path d="M241,364C241,355.721 238.884,349 236.277,349L93.723,349C91.116,349 89,355.721 89,364C89,372.279 91.116,379 93.723,379L236.277,379C238.884,379 241,372.279 241,364Z" style="fill:rgb(177,128,0);fill-opacity:0.1;"/>
        </g>
    </g>
    <g id="Layer11" serif:id="Layer1" transform="matrix(0.457697,-0.000548352,-0.00071472,-0.593752,-53.2071,268.583)">
        <g transform="matrix(1.44079,0,0,1.43333,-39.2303,-158.233)">
            <path d="M241,364C241,355.721 232.326,349 221.642,349L108.358,349C97.674,349 89,355.721 89,364C89,372.279 97.674,379 108.358,379L221.642,379C232.326,379 241,372.279 241,364Z" style="fill:rgb(0,86,177);fill-opacity:0.05;"/>
        </g>
        <g transform="matrix(0.625,0,0,0.833333,75.375,94.1667)">
            <path d="M241,364C241,355.721 229.374,349 215.055,349L114.945,349C100.626,349 89,355.721 89,364C89,372.279 100.626,379 114.945,379L215.055,379C229.374,379 241,372.279 241,364Z" style="fill:rgb(0,86,177);fill-opacity:0.05;"/>
        </g>
        <g transform="matrix(2.19737,0,0,0.533333,-84.5658,223.867)">
            <path d="M241,364C241,355.721 238.884,349 236.277,349L93.723,349C91.116,349 89,355.721 89,364C89,372.279 91.116,379 93.723,379L236.277,379C238.884,379 241,372.279 241,364Z" style="fill:rgb(0,86,177);fill-opacity:0.05;"/>
        </g>
    </g>
    <g id="Stars" transform="matrix(0.0751564,0,0,0.0749793,105.428,0.302759)">
        <circle cx="60" cy="295" r="4" style="fill:url(#_Radial1);"/>
        <circle cx="96" cy="230" r="7" style="fill:url(#_Radial2);"/>
        <circle cx="138" cy="372" r="2" style="fill:url(#_Radial3);"/>
        <circle cx="56" cy="445" r="4" style="fill:url(#_Radial4);"/>
        <circle cx="414" cy="453" r="5" style="fill:url(#_Radial5);"/>
        <circle cx="358" cy="320" r="6" style="fill:url(#_Radial6);"/>
        <circle cx="460" cy="319" r="8" style="fill:url(#_Radial7);"/>
        <circle cx="250" cy="431" r="4" style="fill:url(#_Radial8);"/>
        <circle cx="212" cy="68" r="2" style="fill:url(#_Radial9);"/>
        <circle cx="450" cy="49" r="9" style="fill:url(#_Radial10);"/>
        <circle cx="450.5" cy="153.5" r="4.5" style="fill:url(#_Radial11);"/>
        <circle cx="18" cy="23" r="2" style="fill:url(#_Radial12);"/>
        <circle cx="279.5" cy="29.5" r="5.5" style="fill:url(#_Radial13);"/>
        <circle cx="131.5" cy="40.5" r="1.5" style="fill:white;fill-opacity:0.9;"/>
        <circle cx="20" cy="204" r="3" style="fill:white;fill-opacity:0.9;"/>
        <circle cx="359.5" cy="497.5" r="3.5" style="fill:white;fill-opacity:0.9;"/>
        <circle cx="151" cy="494" r="6" style="fill:white;fill-opacity:0.9;"/>
        <circle cx="228.5" cy="176.5" r="6.5" style="fill:white;fill-opacity:0.9;"/>
        <circle cx="495.5" cy="93.5" r="2.5" style="fill:white;fill-opacity:0.9;"/>
        <circle cx="484.5" cy="472.5" r="2.5" style="fill:white;fill-opacity:0.9;"/>
    </g>
    <g id="Stars1" serif:id="Stars" transform="matrix(-0.0389509,-0.0641239,0.0642753,-0.0388591,75.4389,52.5677)">
        <circle cx="60" cy="295" r="4" style="fill:url(#_Radial14);"/>
        <circle cx="96" cy="230" r="7" style="fill:url(#_Radial15);"/>
        <circle cx="138" cy="372" r="2" style="fill:url(#_Radial16);"/>
        <circle cx="56" cy="445" r="4" style="fill:url(#_Radial17);"/>
        <circle cx="414" cy="453" r="5" style="fill:url(#_Radial18);"/>
        <circle cx="358" cy="320" r="6" style="fill:url(#_Radial19);"/>
        <circle cx="460" cy="319" r="8" style="fill:url(#_Radial20);"/>
        <circle cx="250" cy="431" r="4" style="fill:url(#_Radial21);"/>
        <circle cx="212" cy="68" r="2" style="fill:url(#_Radial22);"/>
        <circle cx="450" cy="49" r="9" style="fill:url(#_Radial23);"/>
        <circle cx="450.5" cy="153.5" r="4.5" style="fill:url(#_Radial24);"/>
        <circle cx="18" cy="23" r="2" style="fill:url(#_Radial25);"/>
        <circle cx="279.5" cy="29.5" r="5.5" style="fill:url(#_Radial26);"/>
        <circle cx="131.5" cy="40.5" r="1.5" style="fill:white;fill-opacity:0.9;"/>
        <circle cx="20" cy="204" r="3" style="fill:white;fill-opacity:0.9;"/>
        <circle cx="359.5" cy="497.5" r="3.5" style="fill:white;fill-opacity:0.9;"/>
        <circle cx="151" cy="494" r="6" style="fill:white;fill-opacity:0.9;"/>
        <circle cx="228.5" cy="176.5" r="6.5" style="fill:white;fill-opacity:0.9;"/>
        <circle cx="495.5" cy="93.5" r="2.5" style="fill:white;fill-opacity:0.9;"/>
        <circle cx="484.5" cy="472.5" r="2.5" style="fill:white;fill-opacity:0.9;"/>
    </g>
    <g id="Stars2" serif:id="Stars" transform="matrix(0.00175335,0.0749589,-0.075136,0.00174922,45.6765,41.4349)">
        <circle cx="60" cy="295" r="4" style="fill:url(#_Radial27);"/>
        <circle cx="96" cy="230" r="7" style="fill:url(#_Radial28);"/>
        <circle cx="138" cy="372" r="2" style="fill:url(#_Radial29);"/>
        <circle cx="56" cy="445" r="4" style="fill:url(#_Radial30);"/>
        <circle cx="414" cy="453" r="5" style="fill:url(#_Radial31);"/>
        <circle cx="358" cy="320" r="6" style="fill:url(#_Radial32);"/>
        <circle cx="460" cy="319" r="8" style="fill:url(#_Radial33);"/>
        <circle cx="250" cy="431" r="4" style="fill:url(#_Radial34);"/>
        <circle cx="212" cy="68" r="2" style="fill:url(#_Radial35);"/>
        <circle cx="450" cy="49" r="9" style="fill:url(#_Radial36);"/>
        <circle cx="450.5" cy="153.5" r="4.5" style="fill:url(#_Radial37);"/>
        <circle cx="18" cy="23" r="2" style="fill:url(#_Radial38);"/>
        <circle cx="279.5" cy="29.5" r="5.5" style="fill:url(#_Radial39);"/>
        <circle cx="131.5" cy="40.5" r="1.5" style="fill:white;fill-opacity:0.9;"/>
        <circle cx="20" cy="204" r="3" style="fill:white;fill-opacity:0.9;"/>
        <circle cx="359.5" cy="497.5" r="3.5" style="fill:white;fill-opacity:0.9;"/>
        <circle cx="151" cy="494" r="6" style="fill:white;fill-opacity:0.9;"/>
        <circle cx="228.5" cy="176.5" r="6.5" style="fill:white;fill-opacity:0.9;"/>
        <circle cx="495.5" cy="93.5" r="2.5" style="fill:white;fill-opacity:0.9;"/>
        <circle cx="484.5" cy="472.5" r="2.5" style="fill:white;fill-opacity:0.9;"/>
    </g>
    <g id="Stars3" serif:id="Stars" transform="matrix(0.0633491,-0.0403445,0.0404398,0.0631999,-7.39725,12.7442)">
        <circle cx="60" cy="295" r="4" style="fill:url(#_Radial40);"/>
        <circle cx="96" cy="230" r="7" style="fill:url(#_Radial41);"/>
        <circle cx="138" cy="372" r="2" style="fill:url(#_Radial42);"/>
        <circle cx="56" cy="445" r="4" style="fill:url(#_Radial43);"/>
        <circle cx="414" cy="453" r="5" style="fill:url(#_Radial44);"/>
        <circle cx="358" cy="320" r="6" style="fill:url(#_Radial45);"/>
        <circle cx="460" cy="319" r="8" style="fill:url(#_Radial46);"/>
        <circle cx="250" cy="431" r="4" style="fill:url(#_Radial47);"/>
        <circle cx="212" cy="68" r="2" style="fill:url(#_Radial48);"/>
        <circle cx="450.5" cy="153.5" r="4.5" style="fill:url(#_Radial49);"/>
        <circle cx="279.5" cy="29.5" r="5.5" style="fill:url(#_Radial50);"/>
        <circle cx="131.5" cy="40.5" r="1.5" style="fill:white;fill-opacity:0.9;"/>
        <circle cx="20" cy="204" r="3" style="fill:white;fill-opacity:0.9;"/>
        <circle cx="359.5" cy="497.5" r="3.5" style="fill:white;fill-opacity:0.9;"/>
        <circle cx="151" cy="494" r="6" style="fill:white;fill-opacity:0.9;"/>
        <circle cx="228.5" cy="176.5" r="6.5" style="fill:white;fill-opacity:0.9;"/>
        <circle cx="484.5" cy="472.5" r="2.5" style="fill:white;fill-opacity:0.9;"/>
    </g>
    <g id="Stars4" serif:id="Stars" transform="matrix(0.000829505,-0.0749748,0.0751518,0.00082755,33.6773,60.0875)">
        <circle cx="60" cy="295" r="4" style="fill:url(#_Radial51);"/>
        <circle cx="96" cy="230" r="7" style="fill:url(#_Radial52);"/>
        <circle cx="138" cy="372" r="2" style="fill:url(#_Radial53);"/>
        <circle cx="56" cy="445" r="4" style="fill:url(#_Radial54);"/>
        <circle cx="414" cy="453" r="5" style="fill:url(#_Radial55);"/>
        <circle cx="358" cy="320" r="6" style="fill:url(#_Radial56);"/>
        <circle cx="460" cy="319" r="8" style="fill:url(#_Radial57);"/>
        <circle cx="250" cy="431" r="4" style="fill:url(#_Radial58);"/>
        <circle cx="212" cy="68" r="2" style="fill:url(#_Radial59);"/>
        <circle cx="450" cy="49" r="9" style="fill:url(#_Radial60);"/>
        <circle cx="450.5" cy="153.5" r="4.5" style="fill:url(#_Radial61);"/>
        <circle cx="18" cy="23" r="2" style="fill:url(#_Radial62);"/>
        <circle cx="279.5" cy="29.5" r="5.5" style="fill:url(#_Radial63);"/>
        <circle cx="131.5" cy="40.5" r="1.5" style="fill:white;fill-opacity:0.9;"/>
        <circle cx="20" cy="204" r="3" style="fill:white;fill-opacity:0.9;"/>
        <circle cx="359.5" cy="497.5" r="3.5" style="fill:white;fill-opacity:0.9;"/>
        <circle cx="151" cy="494" r="6" style="fill:white;fill-opacity:0.9;"/>
        <circle cx="228.5" cy="176.5" r="6.5" style="fill:white;fill-opacity:0.9;"/>
        <circle cx="495.5" cy="93.5" r="2.5" style="fill:white;fill-opacity:0.9;"/>
        <circle cx="484.5" cy="472.5" r="2.5" style="fill:white;fill-opacity:0.9;"/>
    </g>
    <g id="Stars5" serif:id="Stars" transform="matrix(-0.0647013,0.038149,-0.0382391,-0.0645488,78.2911,15.6013)">
        <circle cx="60" cy="295" r="4" style="fill:url(#_Radial64);"/>
        <circle cx="96" cy="230" r="7" style="fill:url(#_Radial65);"/>
        <circle cx="414" cy="453" r="5" style="fill:url(#_Radial66);"/>
        <circle cx="358" cy="320" r="6" style="fill:url(#_Radial67);"/>
        <circle cx="460" cy="319" r="8" style="fill:url(#_Radial68);"/>
        <circle cx="212" cy="68" r="2" style="fill:url(#_Radial69);"/>
        <circle cx="450" cy="49" r="9" style="fill:url(#_Radial70);"/>
        <circle cx="450.5" cy="153.5" r="4.5" style="fill:url(#_Radial71);"/>
        <circle cx="18" cy="23" r="2" style="fill:url(#_Radial72);"/>
        <circle cx="279.5" cy="29.5" r="5.5" style="fill:url(#_Radial73);"/>
        <circle cx="131.5" cy="40.5" r="1.5" style="fill:white;fill-opacity:0.9;"/>
        <circle cx="20" cy="204" r="3" style="fill:white;fill-opacity:0.9;"/>
        <circle cx="228.5" cy="176.5" r="6.5" style="fill:white;fill-opacity:0.9;"/>
        <circle cx="495.5" cy="93.5" r="2.5" style="fill:white;fill-opacity:0.9;"/>
        <circle cx="484.5" cy="472.5" r="2.5" style="fill:white;fill-opacity:0.9;"/>
    </g>
    <g id="Stars6" serif:id="Stars" transform="matrix(0.0751507,-0.000921786,0.000923964,0.0749737,101.977,42.0947)">
        <circle cx="60" cy="295" r="4" style="fill:url(#_Radial74);"/>
        <circle cx="96" cy="230" r="7" style="fill:url(#_Radial75);"/>
        <circle cx="138" cy="372" r="2" style="fill:url(#_Radial76);"/>
        <circle cx="56" cy="445" r="4" style="fill:url(#_Radial77);"/>
        <circle cx="414" cy="453" r="5" style="fill:url(#_Radial78);"/>
        <circle cx="358" cy="320" r="6" style="fill:url(#_Radial79);"/>
        <circle cx="460" cy="319" r="8" style="fill:url(#_Radial80);"/>
        <circle cx="250" cy="431" r="4" style="fill:url(#_Radial81);"/>
        <circle cx="212" cy="68" r="2" style="fill:url(#_Radial82);"/>
        <circle cx="450" cy="49" r="9" style="fill:url(#_Radial83);"/>
        <circle cx="450.5" cy="153.5" r="4.5" style="fill:url(#_Radial84);"/>
        <circle cx="18" cy="23" r="2" style="fill:url(#_Radial85);"/>
        <circle cx="279.5" cy="29.5" r="5.5" style="fill:url(#_Radial86);"/>
        <circle cx="131.5" cy="40.5" r="1.5" style="fill:white;fill-opacity:0.9;"/>
        <circle cx="20" cy="204" r="3" style="fill:white;fill-opacity:0.9;"/>
        <circle cx="359.5" cy="497.5" r="3.5" style="fill:white;fill-opacity:0.9;"/>
        <circle cx="151" cy="494" r="6" style="fill:white;fill-opacity:0.9;"/>
        <circle cx="228.5" cy="176.5" r="6.5" style="fill:white;fill-opacity:0.9;"/>
        <circle cx="495.5" cy="93.5" r="2.5" style="fill:white;fill-opacity:0.9;"/>
        <circle cx="484.5" cy="472.5" r="2.5" style="fill:white;fill-opacity:0.9;"/>
    </g>
    <g id="Stars7" serif:id="Stars" transform="matrix(-0.0397381,-0.0636413,0.0637916,-0.0396445,72.6349,94.7235)">
        <circle cx="60" cy="295" r="4" style="fill:url(#_Radial87);"/>
        <circle cx="96" cy="230" r="7" style="fill:url(#_Radial88);"/>
        <circle cx="138" cy="372" r="2" style="fill:url(#_Radial89);"/>
        <circle cx="56" cy="445" r="4" style="fill:url(#_Radial90);"/>
        <circle cx="414" cy="453" r="5" style="fill:url(#_Radial91);"/>
        <circle cx="358" cy="320" r="6" style="fill:url(#_Radial92);"/>
        <circle cx="460" cy="319" r="8" style="fill:url(#_Radial93);"/>
        <circle cx="250" cy="431" r="4" style="fill:url(#_Radial94);"/>
        <circle cx="212" cy="68" r="2" style="fill:url(#_Radial95);"/>
        <circle cx="450" cy="49" r="9" style="fill:url(#_Radial96);"/>
        <circle cx="450.5" cy="153.5" r="4.5" style="fill:url(#_Radial97);"/>
        <circle cx="279.5" cy="29.5" r="5.5" style="fill:url(#_Radial98);"/>
        <circle cx="359.5" cy="497.5" r="3.5" style="fill:white;fill-opacity:0.9;"/>
        <circle cx="151" cy="494" r="6" style="fill:white;fill-opacity:0.9;"/>
        <circle cx="228.5" cy="176.5" r="6.5" style="fill:white;fill-opacity:0.9;"/>
        <circle cx="495.5" cy="93.5" r="2.5" style="fill:white;fill-opacity:0.9;"/>
        <circle cx="484.5" cy="472.5" r="2.5" style="fill:white;fill-opacity:0.9;"/>
    </g>
    <g id="Layer12" serif:id="Layer1" transform="matrix(0.137646,0,0,0.137322,-14.8226,23.2254)">
        <g transform="matrix(1.44079,0,0,1.43333,-39.2303,-158.233)">
            <path d="M241,364C241,355.721 234.329,349 226.113,349L103.887,349C95.671,349 89,355.721 89,364C89,372.279 95.671,379 103.887,379L226.113,379C234.329,379 241,372.279 241,364Z" style="fill:rgb(177,0,95);fill-opacity:0.1;"/>
        </g>
        <g transform="matrix(0.625,0,0,0.833333,75.375,94.1667)">
            <path d="M241,364C241,355.721 232.059,349 221.047,349L108.953,349C97.941,349 89,355.721 89,364C89,372.279 97.941,379 108.953,379L221.047,379C232.059,379 241,372.279 241,364Z" style="fill:rgb(177,0,95);fill-opacity:0.1;"/>
        </g>
        <g transform="matrix(2.19737,0,0,0.533333,-84.5658,223.867)">
            <path d="M241,364C241,355.721 239.372,349 237.368,349L92.632,349C90.628,349 89,355.721 89,364C89,372.279 90.628,379 92.632,379L237.368,379C239.372,379 241,372.279 241,364Z" style="fill:rgb(177,0,95);fill-opacity:0.1;"/>
        </g>
    </g>
    <defs>
        <radialGradient id="_Radial1" cx="0" cy="0" r="1" gradientUnits="userSpaceOnUse" gradientTransform="matrix(452,0,0,437,16,239.5)"><stop offset="0" style="stop-color:white;stop-opacity:1"/><stop offset="1" style="stop-color:white;stop-opacity:0"/></radialGradient>
        <radialGradient id="_Radial2" cx="0" cy="0" r="1" gradientUnits="userSpaceOnUse" gradientTransform="matrix(452,0,0,437,16,239.5)"><stop offset="0" style="stop-color:white;stop-opacity:1"/><stop offset="1" style="stop-color:white;stop-opacity:0"/></radialGradient>
        <radialGradient id="_Radial3" cx="0" cy="0" r="1" gradientUnits="userSpaceOnUse" gradientTransform="matrix(452,0,0,437,16,239.5)"><stop offset="0" style="stop-color:white;stop-opacity:1"/><stop offset="1" style="stop-color:white;stop-opacity:0"/></radialGradient>
        <radialGradient id="_Radial4" cx="0" cy="0" r="1" gradientUnits="userSpaceOnUse" gradientTransform="matrix(452,0,0,437,16,239.5)"><stop offset="0" style="stop-color:white;stop-opacity:1"/><stop offset="1" style="stop-color:white;stop-opacity:0"/></radialGradient>
        <radialGradient id="_Radial5" cx="0" cy="0" r="1" gradientUnits="userSpaceOnUse" gradientTransform="matrix(452,0,0,437,16,239.5)"><stop offset="0" style="stop-color:white;stop-opacity:1"/><stop offset="1" style="stop-color:white;stop-opacity:0"/></radialGradient>
        <radialGradient id="_Radial6" cx="0" cy="0" r="1" gradientUnits="userSpaceOnUse" gradientTransform="matrix(452,0,0,437,16,239.5)"><stop offset="0" style="stop-color:white;stop-opacity:1"/><stop offset="1" style="stop-color:white;stop-opacity:0"/></radialGradient>
        <radialGradient id="_Radial7" cx="0" cy="0" r="1" gradientUnits="userSpaceOnUse" gradientTransform="matrix(452,0,0,437,16,239.5)"><stop offset="0" style="stop-color:white;stop-opacity:1"/><stop offset="1" style="stop-color:white;stop-opacity:0"/></radialGradient>
        <radialGradient id="_Radial8" cx="0" cy="0" r="1" gradientUnits="userSpaceOnUse" gradientTransform="matrix(452,0,0,437,16,239.5)"><stop offset="0" style="stop-color:white;stop-opacity:1"/><stop offset="1" style="stop-color:white;stop-opacity:0"/></radialGradient>
        <radialGradient id="_Radial9" cx="0" cy="0" r="1" gradientUnits="userSpaceOnUse" gradientTransform="matrix(452,0,0,437,16,239.5)"><stop offset="0" style="stop-color:white;stop-opacity:1"/><stop offset="1" style="stop-color:white;stop-opacity:0"/></radialGradient>
        <radialGradient id="_Radial10" cx="0" cy="0" r="1" gradientUnits="userSpaceOnUse" gradientTransform="matrix(452,0,0,437,16,239.5)"><stop offset="0" style="stop-color:white;stop-opacity:1"/><stop offset="1" style="stop-color:white;stop-opacity:0"/></radialGradient>
        <radialGradient id="_Radial11" cx="0" cy="0" r="1" gradientUnits="userSpaceOnUse" gradientTransform="matrix(452,0,0,437,16,239.5)"><stop offset="0" style="stop-color:white;stop-opacity:1"/><stop offset="1" style="stop-color:white;stop-opacity:0"/></radialGradient>
        <radialGradient id="_Radial12" cx="0" cy="0" r="1" gradientUnits="userSpaceOnUse" gradientTransform="matrix(452,0,0,437,16,239.5)"><stop offset="0" style="stop-color:white;stop-opacity:1"/><stop offset="1" style="stop-color:white;stop-opacity:0"/></radialGradient>
        <radialGradient id="_Radial13" cx="0" cy="0" r="1" gradientUnits="userSpaceOnUse" gradientTransform="matrix(452,0,0,437,16,239.5)"><stop offset="0" style="stop-color:white;stop-opacity:1"/><stop offset="1" style="stop-color:white;stop-opacity:0"/></radialGradient>
        <radialGradient id="_Radial14" cx="0" cy="0" r="1" gradientUnits="userSpaceOnUse" gradientTransform="matrix(452,0,0,437,16,239.5)"><stop offset="0" style="stop-color:white;stop-opacity:1"/><stop offset="1" style="stop-color:white;stop-opacity:0"/></radialGradient>
        <radialGradient id="_Radial15" cx="0" cy="0" r="1" gradientUnits="userSpaceOnUse" gradientTransform="matrix(452,0,0,437,16,239.5)"><stop offset="0" style="stop-color:white;stop-opacity:1"/><stop offset="1" style="stop-color:white;stop-opacity:0"/></radialGradient>
        <radialGradient id="_Radial16" cx="0" cy="0" r="1" gradientUnits="userSpaceOnUse" gradientTransform="matrix(452,0,0,437,16,239.5)"><stop offset="0" style="stop-color:white;stop-opacity:1"/><stop offset="1" style="stop-color:white;stop-opacity:0"/></radialGradient>
        <radialGradient id="_Radial17" cx="0" cy="0" r="1" gradientUnits="userSpaceOnUse" gradientTransform="matrix(452,0,0,437,16,239.5)"><stop offset="0" style="stop-color:white;stop-opacity:1"/><stop offset="1" style="stop-color:white;stop-opacity:0"/></radialGradient>
        <radialGradient id="_Radial18" cx="0" cy="0" r="1" gradientUnits="userSpaceOnUse" gradientTransform="matrix(452,0,0,437,16,239.5)"><stop offset="0" style="stop-color:white;stop-opacity:1"/><stop offset="1" style="stop-color:white;stop-opacity:0"/></radialGradient>
        <radialGradient id="_Radial19" cx="0" cy="0" r="1" gradientUnits="userSpaceOnUse" gradientTransform="matrix(452,0,0,437,16,239.5)"><stop offset="0" style="stop-color:white;stop-opacity:1"/><stop offset="1" style="stop-color:white;stop-opacity:0"/></radialGradient>
        <radialGradient id="_Radial20" cx="0" cy="0" r="1" gradientUnits="userSpaceOnUse" gradientTransform="matrix(452,0,0,437,16,239.5)"><stop offset="0" style="stop-color:white;stop-opacity:1"/><stop offset="1" style="stop-color:white;stop-opacity:0"/></radialGradient>
        <radialGradient id="_Radial21" cx="0" cy="0" r="1" gradientUnits="userSpaceOnUse" gradientTransform="matrix(452,0,0,437,16,239.5)"><stop offset="0" style="stop-color:white;stop-opacity:1"/><stop offset="1" style="stop-color:white;stop-opacity:0"/></radialGradient>
        <radialGradient id="_Radial22" cx="0" cy="0" r="1" gradientUnits="userSpaceOnUse" gradientTransform="matrix(452,0,0,437,16,239.5)"><stop offset="0" style="stop-color:white;stop-opacity:1"/><stop offset="1" style="stop-color:white;stop-opacity:0"/></radialGradient>
        <radialGradient id="_Radial23" cx="0" cy="0" r="1" gradientUnits="userSpaceOnUse" gradientTransform="matrix(452,0,0,437,16,239.5)"><stop offset="0" style="stop-color:white;stop-opacity:1"/><stop offset="1" style="stop-color:white;stop-opacity:0"/></radialGradient>
        <radialGradient id="_Radial24" cx="0" cy="0" r="1" gradientUnits="userSpaceOnUse" gradientTransform="matrix(452,0,0,437,16,239.5)"><stop offset="0" style="stop-color:white;stop-opacity:1"/><stop offset="1" style="stop-color:white;stop-opacity:0"/></radialGradient>
        <radialGradient id="_Radial25" cx="0" cy="0" r="1" gradientUnits="userSpaceOnUse" gradientTransform="matrix(452,0,0,437,16,239.5)"><stop offset="0" style="stop-color:white;stop-opacity:1"/><stop offset="1" style="stop-color:white;stop-opacity:0"/></radialGradient>
        <radialGradient id="_Radial26" cx="0" cy="0" r="1" gradientUnits="userSpaceOnUse" gradientTransform="matrix(452,0,0,437,16,239.5)"><stop offset="0" style="stop-color:white;stop-opacity:1"/><stop offset="1" style="stop-color:white;stop-opacity:0"/></radialGradient>
        <radialGradient id="_Radial27" cx="0" cy="0" r="1" gradientUnits="userSpaceOnUse" gradientTransform="matrix(452,0,0,437,16,239.5)"><stop offset="0" style="stop-color:white;stop-opacity:1"/><stop offset="1" style="stop-color:white;stop-opacity:0"/></radialGradient>
        <radialGradient id="_Radial28" cx="0" cy="0" r="1" gradientUnits="userSpaceOnUse" gradientTransform="matrix(452,0,0,437,16,239.5)"><stop offset="0" style="stop-color:white;stop-opacity:1"/><stop offset="1" style="stop-color:white;stop-opacity:0"/></radialGradient>
        <radialGradient id="_Radial29" cx="0" cy="0" r="1" gradientUnits="userSpaceOnUse" gradientTransform="matrix(452,0,0,437,16,239.5)"><stop offset="0" style="stop-color:white;stop-opacity:1"/><stop offset="1" style="stop-color:white;stop-opacity:0"/></radialGradient>
        <radialGradient id="_Radial30" cx="0" cy="0" r="1" gradientUnits="userSpaceOnUse" gradientTransform="matrix(452,0,0,437,16,239.5)"><stop offset="0" style="stop-color:white;stop-opacity:1"/><stop offset="1" style="stop-color:white;stop-opacity:0"/></radialGradient>
        <radialGradient id="_Radial31" cx="0" cy="0" r="1" gradientUnits="userSpaceOnUse" gradientTransform="matrix(452,0,0,437,16,239.5)"><stop offset="0" style="stop-color:white;stop-opacity:1"/><stop offset="1" style="stop-color:white;stop-opacity:0"/></radialGradient>
        <radialGradient id="_Radial32" cx="0" cy="0" r="1" gradientUnits="userSpaceOnUse" gradientTransform="matrix(452,0,0,437,16,239.5)"><stop offset="0" style="stop-color:white;stop-opacity:1"/><stop offset="1" style="stop-color:white;stop-opacity:0"/></radialGradient>
        <radialGradient id="_Radial33" cx="0" cy="0" r="1" gradientUnits="userSpaceOnUse" gradientTransform="matrix(452,0,0,437,16,239.5)"><stop offset="0" style="stop-color:white;stop-opacity:1"/><stop offset="1" style="stop-color:white;stop-opacity:0"/></radialGradient>
        <radialGradient id="_Radial34" cx="0" cy="0" r="1" gradientUnits="userSpaceOnUse" gradientTransform="matrix(452,0,0,437,16,239.5)"><stop offset="0" style="stop-color:white;stop-opacity:1"/><stop offset="1" style="stop-color:white;stop-opacity:0"/></radialGradient>
        <radialGradient id="_Radial35" cx="0" cy="0" r="1" gradientUnits="userSpaceOnUse" gradientTransform="matrix(452,0,0,437,16,239.5)"><stop offset="0" style="stop-color:white;stop-opacity:1"/><stop offset="1" style="stop-color:white;stop-opacity:0"/></radialGradient>
        <radialGradient id="_Radial36" cx="0" cy="0" r="1" gradientUnits="userSpaceOnUse" gradientTransform="matrix(452,0,0,437,16,239.5)"><stop offset="0" style="stop-color:white;stop-opacity:1"/><stop offset="1" style="stop-color:white;stop-opacity:0"/></radialGradient>
        <radialGradient id="_Radial37" cx="0" cy="0" r="1" gradientUnits="userSpaceOnUse" gradientTransform="matrix(452,0,0,437,16,239.5)"><stop offset="0" style="stop-color:white;stop-opacity:1"/><stop offset="1" style="stop-color:white;stop-opacity:0"/></radialGradient>
        <radialGradient id="_Radial38" cx="0" cy="0" r="1" gradientUnits="userSpaceOnUse" gradientTransform="matrix(452,0,0,437,16,239.5)"><stop offset="0" style="stop-color:white;stop-opacity:1"/><stop offset="1" style="stop-color:white;stop-opacity:0"/></radialGradient>
        <radialGradient id="_Radial39" cx="0" cy="0" r="1" gradientUnits="userSpaceOnUse" gradientTransform="matrix(452,0,0,437,16,239.5)"><stop offset="0" style="stop-color:white;stop-opacity:1"/><stop offset="1" style="stop-color:white;stop-opacity:0"/></radialGradient>
        <radialGradient id="_Radial40" cx="0" cy="0" r="1" gradientUnits="userSpaceOnUse" gradientTransform="matrix(452,0,0,437,16,239.5)"><stop offset="0" style="stop-color:white;stop-opacity:1"/><stop offset="1" style="stop-color:white;stop-opacity:0"/></radialGradient>
        <radialGradient id="_Radial41" cx="0" cy="0" r="1" gradientUnits="userSpaceOnUse" gradientTransform="matrix(452,0,0,437,16,239.5)"><stop offset="0" style="stop-color:white;stop-opacity:1"/><stop offset="1" style="stop-color:white;stop-opacity:0"/></radialGradient>
        <radialGradient id="_Radial42" cx="0" cy="0" r="1" gradientUnits="userSpaceOnUse" gradientTransform="matrix(452,0,0,437,16,239.5)"><stop offset="0" style="stop-color:white;stop-opacity:1"/><stop offset="1" style="stop-color:white;stop-opacity:0"/></radialGradient>
        <radialGradient id="_Radial43" cx="0" cy="0" r="1" gradientUnits="userSpaceOnUse" gradientTransform="matrix(452,0,0,437,16,239.5)"><stop offset="0" style="stop-color:white;stop-opacity:1"/><stop offset="1" style="stop-color:white;stop-opacity:0"/></radialGradient>
        <radialGradient id="_Radial44" cx="0" cy="0" r="1" gradientUnits="userSpaceOnUse" gradientTransform="matrix(452,0,0,437,16,239.5)"><stop offset="0" style="stop-color:white;stop-opacity:1"/><stop offset="1" style="stop-color:white;stop-opacity:0"/></radialGradient>
        <radialGradient id="_Radial45" cx="0" cy="0" r="1" gradientUnits="userSpaceOnUse" gradientTransform="matrix(452,0,0,437,16,239.5)"><stop offset="0" style="stop-color:white;stop-opacity:1"/><stop offset="1" style="stop-color:white;stop-opacity:0"/></radialGradient>
        <radialGradient id="_Radial46" cx="0" cy="0" r="1" gradientUnits="userSpaceOnUse" gradientTransform="matrix(452,0,0,437,16,239.5)"><stop offset="0" style="stop-color:white;stop-opacity:1"/><stop offset="1" style="stop-color:white;stop-opacity:0"/></radialGradient>
        <radialGradient id="_Radial47" cx="0" cy="0" r="1" gradientUnits="userSpaceOnUse" gradientTransform="matrix(452,0,0,437,16,239.5)"><stop offset="0" style="stop-color:white;stop-opacity:1"/><stop offset="1" style="stop-color:white;stop-opacity:0"/></radialGradient>
        <radialGradient id="_Radial48" cx="0" cy="0" r="1" gradientUnits="userSpaceOnUse" gradientTransform="matrix(452,0,0,437,16,239.5)"><stop offset="0" style="stop-color:white;stop-opacity:1"/><stop offset="1" style="stop-color:white;stop-opacity:0"/></radialGradient>
        <radialGradient id="_Radial49" cx="0" cy="0" r="1" gradientUnits="userSpaceOnUse" gradientTransform="matrix(452,0,0,437,16,239.5)"><stop offset="0" style="stop-color:white;stop-opacity:1"/><stop offset="1" style="stop-color:white;stop-opacity:0"/></radialGradient>
        <radialGradient id="_Radial50" cx="0" cy="0" r="1" gradientUnits="userSpaceOnUse" gradientTransform="matrix(452,0,0,437,16,239.5)"><stop offset="0" style="stop-color:white;stop-opacity:1"/><stop offset="1" style="stop-color:white;stop-opacity:0"/></radialGradient>
        <radialGradient id="_Radial51" cx="0" cy="0" r="1" gradientUnits="userSpaceOnUse" gradientTransform="matrix(452,0,0,437,16,239.5)"><stop offset="0" style="stop-color:white;stop-opacity:1"/><stop offset="1" style="stop-color:white;stop-opacity:0"/></radialGradient>
        <radialGradient id="_Radial52" cx="0" cy="0" r="1" gradientUnits="userSpaceOnUse" gradientTransform="matrix(452,0,0,437,16,239.5)"><stop offset="0" style="stop-color:white;stop-opacity:1"/><stop offset="1" style="stop-color:white;stop-opacity:0"/></radialGradient>
        <radialGradient id="_Radial53" cx="0" cy="0" r="1" gradientUnits="userSpaceOnUse" gradientTransform="matrix(452,0,0,437,16,239.5)"><stop offset="0" style="stop-color:white;stop-opacity:1"/><stop offset="1" style="stop-color:white;stop-opacity:0"/></radialGradient>
        <radialGradient id="_Radial54" cx="0" cy="0" r="1" gradientUnits="userSpaceOnUse" gradientTransform="matrix(452,0,0,437,16,239.5)"><stop offset="0" style="stop-color:white;stop-opacity:1"/><stop offset="1" style="stop-color:white;stop-opacity:0"/></radialGradient>
        <radialGradient id="_Radial55" cx="0" cy="0" r="1" gradientUnits="userSpaceOnUse" gradientTransform="matrix(452,0,0,437,16,239.5)"><stop offset="0" style="stop-color:white;stop-opacity:1"/><stop offset="1" style="stop-color:white;stop-opacity:0"/></radialGradient>
        <radialGradient id="_Radial56" cx="0" cy="0" r="1" gradientUnits="userSpaceOnUse" gradientTransform="matrix(452,0,0,437,16,239.5)"><stop offset="0" style="stop-color:white;stop-opacity:1"/><stop offset="1" style="stop-color:white;stop-opacity:0"/></radialGradient>
        <radialGradient id="_Radial57" cx="0" cy="0" r="1" gradientUnits="userSpaceOnUse" gradientTransform="matrix(452,0,0,437,16,239.5)"><stop offset="0" style="stop-color:white;stop-opacity:1"/><stop offset="1" style="stop-color:white;stop-opacity:0"/></radialGradient>
        <radialGradient id="_Radial58" cx="0" cy="0" r="1" gradientUnits="userSpaceOnUse" gradientTransform="matrix(452,0,0,437,16,239.5)"><stop offset="0" style="stop-color:white;stop-opacity:1"/><stop offset="1" style="stop-color:white;stop-opacity:0"/></radialGradient>
        <radialGradient id="_Radial59" cx="0" cy="0" r="1" gradientUnits="userSpaceOnUse" gradientTransform="matrix(452,0,0,437,16,239.5)"><stop offset="0" style="stop-color:white;stop-opacity:1"/><stop offset="1" style="stop-color:white;stop-opacity:0"/></radialGradient>
        <radialGradient id="_Radial60" cx="0" cy="0" r="1" gradientUnits="userSpaceOnUse" gradientTransform="matrix(452,0,0,437,16,239.5)"><stop offset="0" style="stop-color:white;stop-opacity:1"/><stop offset="1" style="stop-color:white;stop-opacity:0"/></radialGradient>
        <radialGradient id="_Radial61" cx="0" cy="0" r="1" gradientUnits="userSpaceOnUse" gradientTransform="matrix(452,0,0,437,16,239.5)"><stop offset="0" style="stop-color:white;stop-opacity:1"/><stop offset="1" style="stop-color:white;stop-opacity:0"/></radialGradient>
        <radialGradient id="_Radial62" cx="0" cy="0" r="1" gradientUnits="userSpaceOnUse" gradientTransform="matrix(452,0,0,437,16,239.5)"><stop offset="0" style="stop-color:white;stop-opacity:1"/><stop offset="1" style="stop-color:white;stop-opacity:0"/></radialGradient>
        <radialGradient id="_Radial63" cx="0" cy="0" r="1" gradientUnits="userSpaceOnUse" gradientTransform="matrix(452,0,0,437,16,239.5)"><stop offset="0" style="stop-color:white;stop-opacity:1"/><stop offset="1" style="stop-color:white;stop-opacity:0"/></radialGradient>
        <radialGradient id="_Radial64" cx="0" cy="0" r="1" gradientUnits="userSpaceOnUse" gradientTransform="matrix(452,0,0,437,16,239.5)"><stop offset="0" style="stop-color:white;stop-opacity:1"/><stop offset="1" style="stop-color:white;stop-opacity:0"/></radialGradient>
        <radialGradient id="_Radial65" cx="0" cy="0" r="1" gradientUnits="userSpaceOnUse" gradientTransform="matrix(452,0,0,437,16,239.5)"><stop offset="0" style="stop-color:white;stop-opacity:1"/><stop offset="1" style="stop-color:white;stop-opacity:0"/></radialGradient>
        <radialGradient id="_Radial66" cx="0" cy="0" r="1" gradientUnits="userSpaceOnUse" gradientTransform="matrix(452,0,0,437,16,239.5)"><stop offset="0" style="stop-color:white;stop-opacity:1"/><stop offset="1" style="stop-color:white;stop-opacity:0"/></radialGradient>
        <radialGradient id="_Radial67" cx="0" cy="0" r="1" gradientUnits="userSpaceOnUse" gradientTransform="matrix(452,0,0,437,16,239.5)"><stop offset="0" style="stop-color:white;stop-opacity:1"/><stop offset="1" style="stop-color:white;stop-opacity:0"/></radialGradient>
        <radialGradient id="_Radial68" cx="0" cy="0" r="1" gradientUnits="userSpaceOnUse" gradientTransform="matrix(452,0,0,437,16,239.5)"><stop offset="0" style="stop-color:white;stop-opacity:1"/><stop offset="1" style="stop-color:white;stop-opacity:0"/></radialGradient>
        <radialGradient id="_Radial69" cx="0" cy="0" r="1" gradientUnits="userSpaceOnUse" gradientTransform="matrix(452,0,0,437,16,239.5)"><stop offset="0" style="stop-color:white;stop-opacity:1"/><stop offset="1" style="stop-color:white;stop-opacity:0"/></radialGradient>
        <radialGradient id="_Radial70" cx="0" cy="0" r="1" gradientUnits="userSpaceOnUse" gradientTransform="matrix(452,0,0,437,16,239.5)"><stop offset="0" style="stop-color:white;stop-opacity:1"/><stop offset="1" style="stop-color:white;stop-opacity:0"/></radialGradient>
        <radialGradient id="_Radial71" cx="0" cy="0" r="1" gradientUnits="userSpaceOnUse" gradientTransform="matrix(452,0,0,437,16,239.5)"><stop offset="0" style="stop-color:white;stop-opacity:1"/><stop offset="1" style="stop-color:white;stop-opacity:0"/></radialGradient>
        <radialGradient id="_Radial72" cx="0" cy="0" r="1" gradientUnits="userSpaceOnUse" gradientTransform="matrix(452,0,0,437,16,239.5)"><stop offset="0" style="stop-color:white;stop-opacity:1"/><stop offset="1" style="stop-color:white;stop-opacity:0"/></radialGradient>
        <radialGradient id="_Radial73" cx="0" cy="0" r="1" gradientUnits="userSpaceOnUse" gradientTransform="matrix(452,0,0,437,16,239.5)"><stop offset="0" style="stop-color:white;stop-opacity:1"/><stop offset="1" style="stop-color:white;stop-opacity:0"/></radialGradient>
        <radialGradient id="_Radial74" cx="0" cy="0" r="1" gradientUnits="userSpaceOnUse" gradientTransform="matrix(452,0,0,437,16,239.5)"><stop offset="0" style="stop-color:white;stop-opacity:1"/><stop offset="1" style="stop-color:white;stop-opacity:0"/></radialGradient>
        <radialGradient id="_Radial75" cx="0" cy="0" r="1" gradientUnits="userSpaceOnUse" gradientTransform="matrix(452,0,0,437,16,239.5)"><stop offset="0" style="stop-color:white;stop-opacity:1"/><stop offset="1" style="stop-color:white;stop-opacity:0"/></radialGradient>
        <radialGradient id="_Radial76" cx="0" cy="0" r="1" gradientUnits="userSpaceOnUse" gradientTransform="matrix(452,0,0,437,16,239.5)"><stop offset="0" style="stop-color:white;stop-opacity:1"/><stop offset="1" style="stop-color:white;stop-opacity:0"/></radialGradient>
        <radialGradient id="_Radial77" cx="0" cy="0" r="1" gradientUnits="userSpaceOnUse" gradientTransform="matrix(452,0,0,437,16,239.5)"><stop offset="0" style="stop-color:white;stop-opacity:1"/><stop offset="1" style="stop-color:white;stop-opacity:0"/></radialGradient>
        <radialGradient id="_Radial78" cx="0" cy="0" r="1" gradientUnits="userSpaceOnUse" gradientTransform="matrix(452,0,0,437,16,239.5)"><stop offset="0" style="stop-color:white;stop-opacity:1"/><stop offset="1" style="stop-color:white;stop-opacity:0"/></radialGradient>
        <radialGradient id="_Radial79" cx="0" cy="0" r="1" gradientUnits="userSpaceOnUse" gradientTransform="matrix(452,0,0,437,16,239.5)"><stop offset="0" style="stop-color:white;stop-opacity:1"/><stop offset="1" style="stop-color:white;stop-opacity:0"/></radialGradient>
        <radialGradient id="_Radial80" cx="0" cy="0" r="1" gradientUnits="userSpaceOnUse" gradientTransform="matrix(452,0,0,437,16,239.5)"><stop offset="0" style="stop-color:white;stop-opacity:1"/><stop offset="1" style="stop-color:white;stop-opacity:0"/></radialGradient>
        <radialGradient id="_Radial81" cx="0" cy="0" r="1" gradientUnits="userSpaceOnUse" gradientTransform="matrix(452,0,0,437,16,239.5)"><stop offset="0" style="stop-color:white;stop-opacity:1"/><stop offset="1" style="stop-color:white;stop-opacity:0"/></radialGradient>
        <radialGradient id="_Radial82" cx="0" cy="0" r="1" gradientUnits="userSpaceOnUse" gradientTransform="matrix(452,0,0,437,16,239.5)"><stop offset="0" style="stop-color:white;stop-opacity:1"/><stop offset="1" style="stop-color:white;stop-opacity:0"/></radialGradient>
        <radialGradient id="_Radial83" cx="0" cy="0" r="1" gradientUnits="userSpaceOnUse" gradientTransform="matrix(452,0,0,437,16,239.5)"><stop offset="0" style="stop-color:white;stop-opacity:1"/><stop offset="1" style="stop-color:white;stop-opacity:0"/></radialGradient>
        <radialGradient id="_Radial84" cx="0" cy="0" r="1" gradientUnits="userSpaceOnUse" gradientTransform="matrix(452,0,0,437,16,239.5)"><stop offset="0" style="stop-color:white;stop-opacity:1"/><stop offset="1" style="stop-color:white;stop-opacity:0"/></radialGradient>
        <radialGradient id="_Radial85" cx="0" cy="0" r="1" gradientUnits="userSpaceOnUse" gradientTransform="matrix(452,0,0,437,16,239.5)"><stop offset="0" style="stop-color:white;stop-opacity:1"/><stop offset="1" style="stop-color:white;stop-opacity:0"/></radialGradient>
        <radialGradient id="_Radial86" cx="0" cy="0" r="1" gradientUnits="userSpaceOnUse" gradientTransform="matrix(452,0,0,437,16,239.5)"><stop offset="0" style="stop-color:white;stop-opacity:1"/><stop offset="1" style="stop-color:white;stop-opacity:0"/></radialGradient>
        <radialGradient id="_Radial87" cx="0" cy="0" r="1" gradientUnits="userSpaceOnUse" gradientTransform="matrix(452,0,0,437,16,239.5)"><stop offset="0" style="stop-color:white;stop-opacity:1"/><stop offset="1" style="stop-color:white;stop-opacity:0"/></radialGradient>
        <radialGradient id="_Radial88" cx="0" cy="0" r="1" gradientUnits="userSpaceOnUse" gradientTransform="matrix(452,0,0,437,16,239.5)"><stop offset="0" style="stop-color:white;stop-opacity:1"/><stop offset="1" style="stop-color:white;stop-opacity:0"/></radialGradient>
        <radialGradient id="_Radial89" cx="0" cy="0" r="1" gradientUnits="userSpaceOnUse" gradientTransform="matrix(452,0,0,437,16,239.5)"><stop offset="0" style="stop-color:white;stop-opacity:1"/><stop offset="1" style="stop-color:white;stop-opacity:0"/></radialGradient>
        <radialGradient id="_Radial90" cx="0" cy="0" r="1" gradientUnits="userSpaceOnUse" gradientTransform="matrix(452,0,0,437,16,239.5)"><stop offset="0" style="stop-color:white;stop-opacity:1"/><stop offset="1" style="stop-color:white;stop-opacity:0"/></radialGradient>
        <radialGradient id="_Radial91" cx="0" cy="0" r="1" gradientUnits="userSpaceOnUse" gradientTransform="matrix(452,0,0,437,16,239.5)"><stop offset="0" style="stop-color:white;stop-opacity:1"/><stop offset="1" style="stop-color:white;stop-opacity:0"/></radialGradient>
        <radialGradient id="_Radial92" cx="0" cy="0" r="1" gradientUnits="userSpaceOnUse" gradientTransform="matrix(452,0,0,437,16,239.5)"><stop offset="0" style="stop-color:white;stop-opacity:1"/><stop offset="1" style="stop-color:white;stop-opacity:0"/></radialGradient>
        <radialGradient id="_Radial93" cx="0" cy="0" r="1" gradientUnits="userSpaceOnUse" gradientTransform="matrix(452,0,0,437,16,239.5)"><stop offset="0" style="stop-color:white;stop-opacity:1"/><stop offset="1" style="stop-color:white;stop-opacity:0"/></radialGradient>
        <radialGradient id="_Radial94" cx="0" cy="0" r="1" gradientUnits="userSpaceOnUse" gradientTransform="matrix(452,0,0,437,16,239.5)"><stop offset="0" style="stop-color:white;stop-opacity:1"/><stop offset="1" style="stop-color:white;stop-opacity:0"/></radialGradient>
        <radialGradient id="_Radial95" cx="0" cy="0" r="1" gradientUnits="userSpaceOnUse" gradientTransform="matrix(452,0,0,437,16,239.5)"><stop offset="0" style="stop-color:white;stop-opacity:1"/><stop offset="1" style="stop-color:white;stop-opacity:0"/></radialGradient>
        <radialGradient id="_Radial96" cx="0" cy="0" r="1" gradientUnits="userSpaceOnUse" gradientTransform="matrix(452,0,0,437,16,239.5)"><stop offset="0" style="stop-color:white;stop-opacity:1"/><stop offset="1" style="stop-color:white;stop-opacity:0"/></radialGradient>
        <radialGradient id="_Radial97" cx="0" cy="0" r="1" gradientUnits="userSpaceOnUse" gradientTransform="matrix(452,0,0,437,16,239.5)"><stop offset="0" style="stop-color:white;stop-opacity:1"/><stop offset="1" style="stop-color:white;stop-opacity:0"/></radialGradient>
        <radialGradient id="_Radial98" cx="0" cy="0" r="1" gradientUnits="userSpaceOnUse" gradientTransform="matrix(452,0,0,437,16,239.5)"><stop offset="0" style="stop-color:white;stop-opacity:1"/><stop offset="1" style="stop-color:white;stop-opacity:0"/></radialGradient>
    </defs>
</svg>
